<svg width="206" height="78" viewBox="0 0 206 78" fill="none" xmlns="http://www.w3.org/2000/svg">
<path d="M1.832 21.104C1.832 20.6133 1.87467 20.0373 1.96 19.376C2.04533 18.7147 2.20533 17.968 2.44 17.136C2.67467 16.2827 3.02667 15.3333 3.496 14.288L7.432 15.664C7.19733 16.3253 6.99467 16.9333 6.824 17.488C6.65333 18.0213 6.52533 18.5227 6.44 18.992C6.35467 19.44 6.312 19.888 6.312 20.336C6.312 21.04 6.46133 21.6693 6.76 22.224C7.08 22.8 7.53867 23.28 8.136 23.664C8.73333 24.0693 9.45867 24.3787 10.312 24.592C11.1867 24.8053 12.1893 24.912 13.32 24.912C14.4933 24.912 15.5387 24.8587 16.456 24.752C17.3947 24.6453 18.184 24.4853 18.824 24.272C19.4853 24.0587 19.9867 23.7813 20.328 23.44C20.6693 23.12 20.84 22.7467 20.84 22.32C20.84 22.128 20.7653 21.9467 20.616 21.776C20.488 21.6053 20.264 21.424 19.944 21.232C19.6453 21.04 19.24 20.8373 18.728 20.624C18.2373 20.4107 17.64 20.176 16.936 19.92L17.992 15.408C18.9093 15.792 19.7733 16.1333 20.584 16.432C21.416 16.7093 22.2053 16.944 22.952 17.136C23.6987 17.3067 24.4027 17.4453 25.064 17.552C25.7253 17.6373 26.344 17.68 26.92 17.68C27.7307 17.68 28.3067 17.8933 28.648 18.32C28.9893 18.7253 29.16 19.2373 29.16 19.856C29.16 20.5173 28.936 21.072 28.488 21.52C28.04 21.9467 27.4107 22.16 26.6 22.16C26.4293 22.16 26.2587 22.16 26.088 22.16C25.9387 22.16 25.7787 22.16 25.608 22.16C25.4587 22.16 25.2987 22.16 25.128 22.16C25.1707 22.3733 25.192 22.5547 25.192 22.704C25.192 22.8747 25.192 23.0347 25.192 23.184C25.192 23.888 24.9467 24.6027 24.456 25.328C23.9867 26.0533 23.2507 26.7253 22.248 27.344C21.2453 27.9627 19.9653 28.4533 18.408 28.816C16.872 29.2 15.0373 29.392 12.904 29.392C10.6 29.392 8.616 29.0933 6.952 28.496C5.30933 27.92 4.04 27.0133 3.144 25.776C2.26933 24.56 1.832 23.0027 1.832 21.104ZM16.04 36.816C15.4213 36.816 14.888 36.592 14.44 36.144C14.0133 35.7173 13.8 35.2053 13.8 34.608C13.8 33.9893 14.0133 33.456 14.44 33.008C14.888 32.56 15.4213 32.336 16.04 32.336C16.6373 32.336 17.1493 32.56 17.576 33.008C18.0027 33.456 18.216 33.9893 18.216 34.608C18.216 35.2053 18.0027 35.7173 17.576 36.144C17.1493 36.592 16.6373 36.816 16.04 36.816ZM10.504 36.816C9.88533 36.816 9.352 36.592 8.904 36.144C8.47733 35.7173 8.264 35.2053 8.264 34.608C8.264 33.9893 8.47733 33.456 8.904 33.008C9.352 32.56 9.88533 32.336 10.504 32.336C11.1013 32.336 11.6133 32.56 12.04 33.008C12.4667 33.456 12.68 33.9893 12.68 34.608C12.68 35.2053 12.4667 35.7173 12.04 36.144C11.6133 36.592 11.1013 36.816 10.504 36.816ZM26.5938 22.16L26.9138 17.68H31.4898C31.9378 17.68 32.3324 17.6587 32.6738 17.616C33.0151 17.552 33.2924 17.456 33.5058 17.328C33.7404 17.2 33.9111 17.04 34.0178 16.848C34.1244 16.656 34.1778 16.432 34.1778 16.176C34.1778 15.92 34.0391 15.5147 33.7618 14.96C33.5058 14.384 32.9404 13.6907 32.0658 12.88C31.5964 12.4533 31.0844 12.0053 30.5298 11.536C29.9964 11.0453 29.4844 10.5867 28.9938 10.16C28.5031 9.712 28.0978 9.31733 27.7778 8.976C27.4578 8.63467 27.2978 8.38933 27.2978 8.24C27.2978 7.92 27.3191 7.568 27.3618 7.184C27.4044 6.8 27.4684 6.448 27.5538 6.128C27.6604 5.808 27.7991 5.57333 27.9698 5.424C28.3324 5.08267 28.8658 4.688 29.5698 4.24C30.2951 3.77067 31.1591 3.26933 32.1618 2.736C33.1644 2.18133 34.2844 1.60533 35.5218 1.008C36.7804 0.389332 38.1244 -0.229335 39.5538 -0.848001L41.3778 3.056C40.2044 3.568 39.0951 4.06933 38.0498 4.56C37.0044 5.02933 36.0231 5.49867 35.1058 5.968C34.2098 6.416 33.3778 6.864 32.6098 7.312C31.8631 7.73867 31.2018 8.16533 30.6258 8.592L31.0418 6.224C32.8551 7.61067 34.2951 8.85867 35.3618 9.968C36.4498 11.0773 37.2604 12.0693 37.7938 12.944C38.3271 13.7973 38.6791 14.5653 38.8498 15.248C39.0204 15.9093 39.1058 16.496 39.1058 17.008C39.1058 17.52 38.9778 18.0747 38.7218 18.672C38.4871 19.248 38.0498 19.8027 37.4098 20.336C36.7911 20.8693 35.9164 21.3067 34.7858 21.648C33.6551 21.9893 32.2044 22.16 30.4338 22.16H26.5938ZM40.3558 29.392L38.7237 25.424C39.8544 25.04 40.8891 24.592 41.8278 24.08C42.7878 23.568 43.6198 23.0027 44.3238 22.384C45.0278 21.7653 45.5718 21.0933 45.9558 20.368C46.3398 19.6213 46.5318 18.8213 46.5318 17.968C46.5318 17.072 46.3291 16.0907 45.9238 15.024C45.5184 13.9573 45.0278 12.8693 44.4518 11.76L48.6438 9.744C49.0278 10.4053 49.3584 11.12 49.6358 11.888C49.9344 12.6347 50.1798 13.3067 50.3718 13.904C50.5638 14.5013 50.6918 14.9067 50.7558 15.12C51.0544 16.144 51.4598 16.8267 51.9718 17.168C52.5051 17.5093 53.3584 17.68 54.5318 17.68C55.3424 17.68 55.9184 17.8933 56.2598 18.32C56.6224 18.7253 56.8038 19.2373 56.8038 19.856C56.8038 20.5173 56.5798 21.072 56.1318 21.52C55.6838 21.9467 55.0438 22.16 54.2118 22.16C53.3371 22.16 52.5691 22.032 51.9078 21.776C51.2464 21.52 50.7131 21.1467 50.3078 20.656C49.9238 20.1653 49.6784 19.5893 49.5718 18.928L50.7558 19.6C50.6278 20.7307 50.2544 21.7973 49.6358 22.8C49.0384 23.824 48.2598 24.7627 47.2998 25.616C46.3398 26.4693 45.2624 27.216 44.0677 27.856C42.8731 28.496 41.6358 29.008 40.3558 29.392ZM54.25 22.16L54.57 17.68C55.5087 17.68 56.2447 17.616 56.778 17.488C57.3327 17.36 57.7273 17.1253 57.962 16.784C58.1967 16.4213 58.314 15.9093 58.314 15.248C58.314 14.6507 58.2287 13.936 58.058 13.104C57.9087 12.272 57.706 11.408 57.45 10.512C57.194 9.616 56.938 8.79467 56.682 8.048L61.098 6.832C61.354 7.55733 61.61 8.4 61.866 9.36C62.122 10.32 62.3353 11.312 62.506 12.336C62.698 13.3387 62.794 14.3093 62.794 15.248C62.794 16.4213 62.6447 17.4133 62.346 18.224C62.0473 19.0133 61.6313 19.6747 61.098 20.208C60.586 20.72 59.9673 21.1253 59.242 21.424C58.538 21.7013 57.7593 21.8933 56.906 22C56.0527 22.1067 55.1673 22.16 54.25 22.16ZM58.186 29.52C57.5673 29.52 57.034 29.3067 56.586 28.88C56.1593 28.4533 55.946 27.9307 55.946 27.312C55.946 26.6933 56.1593 26.1493 56.586 25.68C57.034 25.232 57.5673 25.008 58.186 25.008C58.8047 25.008 59.3273 25.232 59.754 25.68C60.202 26.1493 60.426 26.6933 60.426 27.312C60.426 27.9307 60.202 28.4533 59.754 28.88C59.3273 29.3067 58.8047 29.52 58.186 29.52ZM3.29545 70V46.7273H12.2045C13.8864 46.7273 15.2841 46.9924 16.3977 47.5227C17.5189 48.0455 18.3561 48.7614 18.9091 49.6705C19.4697 50.5795 19.75 51.6098 19.75 52.7614C19.75 53.7083 19.5682 54.5189 19.2045 55.1932C18.8409 55.8598 18.3523 56.4015 17.7386 56.8182C17.125 57.2348 16.4394 57.5341 15.6818 57.7159V57.9432C16.5076 57.9886 17.2992 58.2424 18.0568 58.7045C18.822 59.1591 19.447 59.803 19.9318 60.6364C20.4167 61.4697 20.6591 62.4773 20.6591 63.6591C20.6591 64.8636 20.3674 65.947 19.7841 66.9091C19.2008 67.8636 18.322 68.6174 17.1477 69.1705C15.9735 69.7235 14.4962 70 12.7159 70H3.29545ZM7.51136 66.4773H12.0455C13.5758 66.4773 14.678 66.1856 15.3523 65.6023C16.0341 65.0114 16.375 64.2538 16.375 63.3295C16.375 62.6402 16.2045 62.0189 15.8636 61.4659C15.5227 60.9053 15.0379 60.4659 14.4091 60.1477C13.7803 59.822 13.0303 59.6591 12.1591 59.6591H7.51136V66.4773ZM7.51136 56.625H11.6818C12.4091 56.625 13.0644 56.4924 13.6477 56.2273C14.2311 55.9545 14.6894 55.572 15.0227 55.0795C15.3636 54.5795 15.5341 53.9886 15.5341 53.3068C15.5341 52.4053 15.2159 51.6629 14.5795 51.0795C13.9508 50.4962 13.0152 50.2045 11.7727 50.2045H7.51136V56.625ZM24.3267 70V46.7273H39.4631V50.2614H28.5426V56.5795H38.679V60.1136H28.5426V66.4659H39.554V70H24.3267ZM43.7642 70V46.7273H52.4915C54.2794 46.7273 55.7794 47.0379 56.9915 47.6591C58.2112 48.2803 59.1316 49.1515 59.7528 50.2727C60.3816 51.3864 60.696 52.6856 60.696 54.1705C60.696 55.6629 60.3778 56.9583 59.7415 58.0568C59.1127 59.1477 58.1847 59.9924 56.9574 60.5909C55.7301 61.1818 54.2225 61.4773 52.4347 61.4773H46.2188V57.9773H51.8665C52.9119 57.9773 53.768 57.8333 54.4347 57.5455C55.1013 57.25 55.5938 56.822 55.9119 56.2614C56.2377 55.6932 56.4006 54.9962 56.4006 54.1705C56.4006 53.3447 56.2377 52.6402 55.9119 52.0568C55.5862 51.4659 55.09 51.0189 54.4233 50.7159C53.7566 50.4053 52.8968 50.25 51.8438 50.25H47.9801V70H43.7642ZM55.7869 59.4545L61.5483 70H56.8438L51.1847 59.4545H55.7869ZM80.1676 54.1591C79.9782 53.5455 79.7169 52.9962 79.3835 52.5114C79.0578 52.0189 78.6638 51.5985 78.2017 51.25C77.7472 50.9015 77.2244 50.6402 76.6335 50.4659C76.0426 50.2841 75.3987 50.1932 74.7017 50.1932C73.4517 50.1932 72.3381 50.5076 71.3608 51.1364C70.3835 51.7652 69.6146 52.6894 69.054 53.9091C68.5009 55.1212 68.2244 56.5985 68.2244 58.3409C68.2244 60.0985 68.5009 61.5871 69.054 62.8068C69.607 64.0265 70.3759 64.9545 71.3608 65.5909C72.3456 66.2197 73.4896 66.5341 74.7926 66.5341C75.9744 66.5341 76.9972 66.3068 77.8608 65.8523C78.732 65.3977 79.4025 64.7538 79.8722 63.9205C80.3419 63.0795 80.5767 62.0947 80.5767 60.9659L81.5312 61.1136H75.2131V57.8182H84.6562V60.6136C84.6562 62.6061 84.232 64.3295 83.3835 65.7841C82.535 67.2386 81.3684 68.3598 79.8835 69.1477C78.3987 69.928 76.6941 70.3182 74.7699 70.3182C72.6259 70.3182 70.7434 69.8371 69.1222 68.875C67.5085 67.9053 66.2472 66.5303 65.3381 64.75C64.4366 62.9621 63.9858 60.8409 63.9858 58.3864C63.9858 56.5076 64.2509 54.8295 64.7812 53.3523C65.3191 51.875 66.0691 50.6212 67.0312 49.5909C67.9934 48.553 69.1222 47.7652 70.4176 47.2273C71.7131 46.6818 73.1222 46.4091 74.6449 46.4091C75.9328 46.4091 77.1335 46.5985 78.2472 46.9773C79.3608 47.3485 80.3494 47.8788 81.2131 48.5682C82.0843 49.2576 82.8002 50.0758 83.3608 51.0227C83.9214 51.9697 84.2888 53.0152 84.4631 54.1591H80.1676ZM103.403 46.7273H107.619V61.9318C107.619 63.5985 107.225 65.0644 106.438 66.3295C105.657 67.5947 104.559 68.5833 103.142 69.2955C101.725 70 100.07 70.3523 98.1761 70.3523C96.2746 70.3523 94.6155 70 93.1989 69.2955C91.7822 68.5833 90.6837 67.5947 89.9034 66.3295C89.1231 65.0644 88.733 63.5985 88.733 61.9318V46.7273H92.9489V61.5795C92.9489 62.5492 93.161 63.4129 93.5852 64.1705C94.017 64.928 94.6231 65.5227 95.4034 65.9545C96.1837 66.3788 97.108 66.5909 98.1761 66.5909C99.2443 66.5909 100.169 66.3788 100.949 65.9545C101.737 65.5227 102.343 64.928 102.767 64.1705C103.191 63.4129 103.403 62.5492 103.403 61.5795V46.7273ZM116.418 46.7273V70H112.202V46.7273H116.418Z" fill="black"/>
</svg>
